<svg width="360" height="64" viewBox="0 0 360 64" fill="none" xmlns="http://www.w3.org/2000/svg" role="img" aria-labelledby="title desc">
  <title id="title">Helion Forge wordmark</title>
  <desc id="desc">Helion Forge wordmark with orange accent frame.</desc>
  <rect x="1" y="1" width="62" height="62" rx="14" stroke="#2F3137" stroke-width="2"/>
  <path d="M18 42V21H24.5V29H39.5V21H46V42H39.5V34.7H24.5V42H18Z" fill="#E7E1D8"/>
  <path d="M53 17L57.5 21.5L46.5 32.5L42 28L53 17Z" fill="#F36A21"/>
  <path d="M84 20H98.2V24.1H88.8V28.7H97.2V32.7H88.8V43H84V20Z" fill="#E7E1D8"/>
  <path d="M101.1 43V20H106V43H101.1Z" fill="#E7E1D8"/>
  <path d="M109.6 31.48C109.6 24.72 114.56 19.52 121.56 19.52C128.56 19.52 133.52 24.72 133.52 31.48C133.52 38.24 128.56 43.44 121.56 43.44C114.56 43.44 109.6 38.24 109.6 31.48ZM114.52 31.48C114.52 35.68 117.36 39.04 121.56 39.04C125.76 39.04 128.6 35.68 128.6 31.48C128.6 27.28 125.76 23.92 121.56 23.92C117.36 23.92 114.52 27.28 114.52 31.48Z" fill="#E7E1D8"/>
  <path d="M136.84 43V20H141.68L151.88 35.48V20H156.64V43H151.84L141.6 27.48V43H136.84Z" fill="#E7E1D8"/>
  <path d="M160.36 31.48C160.36 24.68 165.52 19.52 172.36 19.52C176.52 19.52 179.12 21.04 181.32 23.4L178.28 26.76C176.6 25.08 174.88 24.08 172.32 24.08C168.08 24.08 165.08 27.6 165.08 31.4C165.08 35.24 168.04 38.84 172.32 38.84C175.12 38.84 176.84 37.72 178.48 36L181.52 38.96C179.28 41.36 176.8 43.36 172.16 43.36C165.56 43.36 160.36 38.36 160.36 31.48Z" fill="#E7E1D8"/>
  <path d="M184.4 43V20H201.76V24.28H189.2V29.16H200.24V33.44H189.2V38.72H201.92V43H184.4Z" fill="#E7E1D8"/>
  <path d="M216.28 43V20H233.72V24.36H221.12V29.44H232.24V33.8H221.12V43H216.28Z" fill="#E7E1D8"/>
  <path d="M236.07 31.48C236.07 24.72 241.03 19.52 248.03 19.52C255.03 19.52 259.99 24.72 259.99 31.48C259.99 38.24 255.03 43.44 248.03 43.44C241.03 43.44 236.07 38.24 236.07 31.48ZM240.99 31.48C240.99 35.68 243.83 39.04 248.03 39.04C252.23 39.04 255.07 35.68 255.07 31.48C255.07 27.28 252.23 23.92 248.03 23.92C243.83 23.92 240.99 27.28 240.99 31.48Z" fill="#E7E1D8"/>
  <path d="M263.32 43V20H273.84C276.76 20 279.04 20.8 280.56 22.32C281.84 23.6 282.52 25.4 282.52 27.56C282.52 31.24 280.52 33.56 277.6 34.64L283.2 43H277.56L272.64 35.44H268.16V43H263.32ZM268.16 31.16H273.52C275.96 31.16 277.36 29.88 277.36 28C277.36 25.88 275.88 24.8 273.44 24.8H268.16V31.16Z" fill="#E7E1D8"/>
  <path d="M285.52 43V20H302.88V24.28H290.32V29.16H301.36V33.44H290.32V38.72H303.04V43H285.52Z" fill="#E7E1D8"/>
  <path d="M308.92 43V34.04L300.08 20H305.76L311.4 29.48L317.12 20H322.64L313.8 33.92V43H308.92Z" fill="#E7E1D8"/>
</svg>
